<svg id='Pixel_Heart_24' width='24' height='24' viewBox='0 0 24 24' xmlns='http://www.w3.org/2000/svg' xmlns:xlink='http://www.w3.org/1999/xlink'><rect width='24' height='24' stroke='none' fill='#000000' opacity='0'/>


<g transform="matrix(0.42 0 0 0.42 12 12)" >
<g style="" >
<g transform="matrix(1 0 0 1 0 0)" >
<linearGradient id="SVGID_xi4HRCanytwJ5SPe_udDea_1" gradientUnits="userSpaceOnUse" gradientTransform="matrix(1 0 0 1 -24 -24)" x1="22.073" y1="7.048" x2="27.625" y2="38.537">
<stop offset="0%" style="stop-color:rgb(244,79,90);stop-opacity: 1"/>
<stop offset="44.3%" style="stop-color:rgb(238,61,74);stop-opacity: 1"/>
<stop offset="100%" style="stop-color:rgb(229,32,48);stop-opacity: 1"/>
</linearGradient>
<polygon style="stroke: none; stroke-width: 1; stroke-dasharray: none; stroke-linecap: butt; stroke-dashoffset: 0; stroke-linejoin: miter; stroke-miterlimit: 4; fill: url(#SVGID_xi4HRCanytwJ5SPe_udDea_1); fill-rule: nonzero; opacity: 1;" points="-13,-15 -19,-9 -19,-3 -1,15 1,15 19,-3 19,-9.04 13,-15 7,-15 2,-10 -2,-10 -7,-15 " />
</g>
<g transform="matrix(1 0 0 1 -20 -6)" >
<linearGradient id="SVGID_xi4HRCanytwJ5SPe_udDeb_2" gradientUnits="userSpaceOnUse" gradientTransform="matrix(1 0 0 1 0 0)" x1="3.384" y1="14.052" x2="4.729" y2="21.677">
<stop offset="0%" style="stop-color:rgb(99,99,99);stop-opacity: 1"/>
<stop offset="100%" style="stop-color:rgb(68,68,68);stop-opacity: 1"/>
</linearGradient>
<path style="stroke: none; stroke-width: 1; stroke-dasharray: none; stroke-linecap: butt; stroke-dashoffset: 0; stroke-linejoin: miter; stroke-miterlimit: 4; fill: url(#SVGID_xi4HRCanytwJ5SPe_udDeb_2); fill-rule: nonzero; opacity: 1;" transform=" translate(-4, -18)" d="M 6 22 L 3 22 C 2.448 22 2 21.552 2 21 L 2 15 C 2 14.448 2.448 14 3 14 L 6 14 L 6 22 z" stroke-linecap="round" />
</g>
<g transform="matrix(1 0 0 1 -16 -12)" >
<linearGradient id="SVGID_xi4HRCanytwJ5SPe_udDec_3" gradientUnits="userSpaceOnUse" gradientTransform="matrix(1 0 0 1 0 0)" x1="7.625" y1="9.874" x2="8.402" y2="14.282">
<stop offset="0%" style="stop-color:rgb(99,99,99);stop-opacity: 1"/>
<stop offset="100%" style="stop-color:rgb(68,68,68);stop-opacity: 1"/>
</linearGradient>
<path style="stroke: none; stroke-width: 1; stroke-dasharray: none; stroke-linecap: butt; stroke-dashoffset: 0; stroke-linejoin: miter; stroke-miterlimit: 4; fill: url(#SVGID_xi4HRCanytwJ5SPe_udDec_3); fill-rule: nonzero; opacity: 1;" transform=" translate(-8, -12)" d="M 10 14 L 6 14 L 6 11 C 6 10.448 6.448 10 7 10 L 10 10 L 10 14 z" stroke-linecap="round" />
</g>
<g transform="matrix(1 0 0 1 -4 -12)" >
<linearGradient id="SVGID_xi4HRCanytwJ5SPe_udDed_4" gradientUnits="userSpaceOnUse" gradientTransform="matrix(1 0 0 1 0 0)" x1="19.52" y1="9.732" x2="20.324" y2="14.296">
<stop offset="0%" style="stop-color:rgb(99,99,99);stop-opacity: 1"/>
<stop offset="100%" style="stop-color:rgb(68,68,68);stop-opacity: 1"/>
</linearGradient>
<path style="stroke: none; stroke-width: 1; stroke-dasharray: none; stroke-linecap: butt; stroke-dashoffset: 0; stroke-linejoin: miter; stroke-miterlimit: 4; fill: url(#SVGID_xi4HRCanytwJ5SPe_udDed_4); fill-rule: nonzero; opacity: 1;" transform=" translate(-20, -12)" d="M 22 14 L 18 14 L 18 10 L 21 10 C 21.552 10 22 10.448 22 11 L 22 14 z" stroke-linecap="round" />
</g>
<g transform="matrix(1 0 0 1 -12 -8)" >
<rect style="stroke: none; stroke-width: 1; stroke-dasharray: none; stroke-linecap: butt; stroke-dashoffset: 0; stroke-linejoin: miter; stroke-miterlimit: 4; fill: rgb(255,255,255); fill-rule: nonzero; opacity: 1;" x="-2" y="-2" rx="0" ry="0" width="4" height="4" />
</g>
<g transform="matrix(1 0 0 1 0 -8)" >
<linearGradient id="SVGID_xi4HRCanytwJ5SPe_udDee_5" gradientUnits="userSpaceOnUse" gradientTransform="matrix(1 0 0 1 -24 -16)" x1="23.598" y1="13.718" x2="24.402" y2="18.282">
<stop offset="0%" style="stop-color:rgb(99,99,99);stop-opacity: 1"/>
<stop offset="100%" style="stop-color:rgb(68,68,68);stop-opacity: 1"/>
</linearGradient>
<rect style="stroke: none; stroke-width: 1; stroke-dasharray: none; stroke-linecap: butt; stroke-dashoffset: 0; stroke-linejoin: miter; stroke-miterlimit: 4; fill: url(#SVGID_xi4HRCanytwJ5SPe_udDee_5); fill-rule: nonzero; opacity: 1;" x="-2" y="-2" rx="0" ry="0" width="4" height="4" />
</g>
<g transform="matrix(1 0 0 1 4 -12)" >
<linearGradient id="SVGID_xi4HRCanytwJ5SPe_udDef_6" gradientUnits="userSpaceOnUse" gradientTransform="matrix(1 0 0 1 0 0)" x1="27.625" y1="9.874" x2="28.402" y2="14.282">
<stop offset="0%" style="stop-color:rgb(99,99,99);stop-opacity: 1"/>
<stop offset="100%" style="stop-color:rgb(68,68,68);stop-opacity: 1"/>
</linearGradient>
<path style="stroke: none; stroke-width: 1; stroke-dasharray: none; stroke-linecap: butt; stroke-dashoffset: 0; stroke-linejoin: miter; stroke-miterlimit: 4; fill: url(#SVGID_xi4HRCanytwJ5SPe_udDef_6); fill-rule: nonzero; opacity: 1;" transform=" translate(-28, -12)" d="M 30 14 L 26 14 L 26 11 C 26 10.448 26.448 10 27 10 L 30 10 L 30 14 z" stroke-linecap="round" />
</g>
<g transform="matrix(1 0 0 1 -16 0)" >
<linearGradient id="SVGID_xi4HRCanytwJ5SPe_udDeg_7" gradientUnits="userSpaceOnUse" gradientTransform="matrix(1 0 0 1 0 0)" x1="7.676" y1="21.704" x2="8.48" y2="26.268">
<stop offset="0%" style="stop-color:rgb(99,99,99);stop-opacity: 1"/>
<stop offset="100%" style="stop-color:rgb(68,68,68);stop-opacity: 1"/>
</linearGradient>
<path style="stroke: none; stroke-width: 1; stroke-dasharray: none; stroke-linecap: butt; stroke-dashoffset: 0; stroke-linejoin: miter; stroke-miterlimit: 4; fill: url(#SVGID_xi4HRCanytwJ5SPe_udDeg_7); fill-rule: nonzero; opacity: 1;" transform=" translate(-8, -24)" d="M 10 26 L 7 26 C 6.448 26 6 25.552 6 25 L 6 22 L 10 22 L 10 26 z" stroke-linecap="round" />
</g>
<g transform="matrix(1 0 0 1 -12 4)" >
<linearGradient id="SVGID_xi4HRCanytwJ5SPe_udDeh_8" gradientUnits="userSpaceOnUse" gradientTransform="matrix(1 0 0 1 0 0)" x1="11.676" y1="25.704" x2="12.48" y2="30.268">
<stop offset="0%" style="stop-color:rgb(99,99,99);stop-opacity: 1"/>
<stop offset="100%" style="stop-color:rgb(68,68,68);stop-opacity: 1"/>
</linearGradient>
<path style="stroke: none; stroke-width: 1; stroke-dasharray: none; stroke-linecap: butt; stroke-dashoffset: 0; stroke-linejoin: miter; stroke-miterlimit: 4; fill: url(#SVGID_xi4HRCanytwJ5SPe_udDeh_8); fill-rule: nonzero; opacity: 1;" transform=" translate(-12, -28)" d="M 14 30 L 11 30 C 10.448 30 10 29.552 10 29 L 10 26 L 14 26 L 14 30 z" stroke-linecap="round" />
</g>
<g transform="matrix(1 0 0 1 -8 8)" >
<linearGradient id="SVGID_xi4HRCanytwJ5SPe_udDei_9" gradientUnits="userSpaceOnUse" gradientTransform="matrix(1 0 0 1 0 0)" x1="15.676" y1="29.704" x2="16.48" y2="34.268">
<stop offset="0%" style="stop-color:rgb(99,99,99);stop-opacity: 1"/>
<stop offset="100%" style="stop-color:rgb(68,68,68);stop-opacity: 1"/>
</linearGradient>
<path style="stroke: none; stroke-width: 1; stroke-dasharray: none; stroke-linecap: butt; stroke-dashoffset: 0; stroke-linejoin: miter; stroke-miterlimit: 4; fill: url(#SVGID_xi4HRCanytwJ5SPe_udDei_9); fill-rule: nonzero; opacity: 1;" transform=" translate(-16, -32)" d="M 18 34 L 15 34 C 14.448 34 14 33.552 14 33 L 14 30 L 18 30 L 18 34 z" stroke-linecap="round" />
</g>
<g transform="matrix(1 0 0 1 -4 12)" >
<linearGradient id="SVGID_xi4HRCanytwJ5SPe_udDej_10" gradientUnits="userSpaceOnUse" gradientTransform="matrix(1 0 0 1 0 0)" x1="19.676" y1="33.705" x2="20.48" y2="38.268">
<stop offset="0%" style="stop-color:rgb(99,99,99);stop-opacity: 1"/>
<stop offset="100%" style="stop-color:rgb(68,68,68);stop-opacity: 1"/>
</linearGradient>
<path style="stroke: none; stroke-width: 1; stroke-dasharray: none; stroke-linecap: butt; stroke-dashoffset: 0; stroke-linejoin: miter; stroke-miterlimit: 4; fill: url(#SVGID_xi4HRCanytwJ5SPe_udDej_10); fill-rule: nonzero; opacity: 1;" transform=" translate(-20, -36)" d="M 22 38 L 19 38 C 18.448 38 18 37.552 18 37 L 18 34 L 22 34 L 22 38 z" stroke-linecap="round" />
</g>
<g transform="matrix(1 0 0 1 0 16)" >
<linearGradient id="SVGID_xi4HRCanytwJ5SPe_udDek_11" gradientUnits="userSpaceOnUse" gradientTransform="matrix(1 0 0 1 0 0)" x1="23.676" y1="37.705" x2="24.453" y2="42.112">
<stop offset="0%" style="stop-color:rgb(99,99,99);stop-opacity: 1"/>
<stop offset="100%" style="stop-color:rgb(68,68,68);stop-opacity: 1"/>
</linearGradient>
<path style="stroke: none; stroke-width: 1; stroke-dasharray: none; stroke-linecap: butt; stroke-dashoffset: 0; stroke-linejoin: miter; stroke-miterlimit: 4; fill: url(#SVGID_xi4HRCanytwJ5SPe_udDek_11); fill-rule: nonzero; opacity: 1;" transform=" translate(-24, -40)" d="M 25 42 L 23 42 C 22.448 42 22 41.552 22 41 L 22 38 L 26 38 L 26 41 C 26 41.552 25.552 42 25 42 z" stroke-linecap="round" />
</g>
<g transform="matrix(1 0 0 1 20 -6)" >
<linearGradient id="SVGID_xi4HRCanytwJ5SPe_udDel_12" gradientUnits="userSpaceOnUse" gradientTransform="matrix(-1 0 0 1 56 0)" x1="11.384" y1="14.052" x2="12.729" y2="21.677">
<stop offset="0%" style="stop-color:rgb(99,99,99);stop-opacity: 1"/>
<stop offset="100%" style="stop-color:rgb(68,68,68);stop-opacity: 1"/>
</linearGradient>
<path style="stroke: none; stroke-width: 1; stroke-dasharray: none; stroke-linecap: butt; stroke-dashoffset: 0; stroke-linejoin: miter; stroke-miterlimit: 4; fill: url(#SVGID_xi4HRCanytwJ5SPe_udDel_12); fill-rule: nonzero; opacity: 1;" transform=" translate(-44, -18)" d="M 42 22 L 45 22 C 45.552 22 46 21.552 46 21 L 46 15 C 46 14.448 45.552 14 45 14 L 42 14 L 42 22 z" stroke-linecap="round" />
</g>
<g transform="matrix(1 0 0 1 16 0)" >
<linearGradient id="SVGID_xi4HRCanytwJ5SPe_udDem_13" gradientUnits="userSpaceOnUse" gradientTransform="matrix(-1 0 0 1 56 0)" x1="15.676" y1="21.704" x2="16.48" y2="26.268">
<stop offset="0%" style="stop-color:rgb(99,99,99);stop-opacity: 1"/>
<stop offset="100%" style="stop-color:rgb(68,68,68);stop-opacity: 1"/>
</linearGradient>
<path style="stroke: none; stroke-width: 1; stroke-dasharray: none; stroke-linecap: butt; stroke-dashoffset: 0; stroke-linejoin: miter; stroke-miterlimit: 4; fill: url(#SVGID_xi4HRCanytwJ5SPe_udDem_13); fill-rule: nonzero; opacity: 1;" transform=" translate(-40, -24)" d="M 38 26 L 41 26 C 41.552 26 42 25.552 42 25 L 42 22 L 38 22 L 38 26 z" stroke-linecap="round" />
</g>
<g transform="matrix(1 0 0 1 12 4)" >
<linearGradient id="SVGID_xi4HRCanytwJ5SPe_udDen_14" gradientUnits="userSpaceOnUse" gradientTransform="matrix(-1 0 0 1 56 0)" x1="19.676" y1="25.704" x2="20.48" y2="30.268">
<stop offset="0%" style="stop-color:rgb(99,99,99);stop-opacity: 1"/>
<stop offset="100%" style="stop-color:rgb(68,68,68);stop-opacity: 1"/>
</linearGradient>
<path style="stroke: none; stroke-width: 1; stroke-dasharray: none; stroke-linecap: butt; stroke-dashoffset: 0; stroke-linejoin: miter; stroke-miterlimit: 4; fill: url(#SVGID_xi4HRCanytwJ5SPe_udDen_14); fill-rule: nonzero; opacity: 1;" transform=" translate(-36, -28)" d="M 34 30 L 37 30 C 37.552 30 38 29.552 38 29 L 38 26 L 34 26 L 34 30 z" stroke-linecap="round" />
</g>
<g transform="matrix(1 0 0 1 8 8)" >
<linearGradient id="SVGID_xi4HRCanytwJ5SPe_udDeo_15" gradientUnits="userSpaceOnUse" gradientTransform="matrix(-1 0 0 1 56 0)" x1="23.676" y1="29.704" x2="24.48" y2="34.268">
<stop offset="0%" style="stop-color:rgb(99,99,99);stop-opacity: 1"/>
<stop offset="100%" style="stop-color:rgb(68,68,68);stop-opacity: 1"/>
</linearGradient>
<path style="stroke: none; stroke-width: 1; stroke-dasharray: none; stroke-linecap: butt; stroke-dashoffset: 0; stroke-linejoin: miter; stroke-miterlimit: 4; fill: url(#SVGID_xi4HRCanytwJ5SPe_udDeo_15); fill-rule: nonzero; opacity: 1;" transform=" translate(-32, -32)" d="M 30 34 L 33 34 C 33.552 34 34 33.552 34 33 L 34 30 L 30 30 L 30 34 z" stroke-linecap="round" />
</g>
<g transform="matrix(1 0 0 1 4 12)" >
<linearGradient id="SVGID_xi4HRCanytwJ5SPe_udDep_16" gradientUnits="userSpaceOnUse" gradientTransform="matrix(-1 0 0 1 56 0)" x1="27.676" y1="33.705" x2="28.48" y2="38.268">
<stop offset="0%" style="stop-color:rgb(99,99,99);stop-opacity: 1"/>
<stop offset="100%" style="stop-color:rgb(68,68,68);stop-opacity: 1"/>
</linearGradient>
<path style="stroke: none; stroke-width: 1; stroke-dasharray: none; stroke-linecap: butt; stroke-dashoffset: 0; stroke-linejoin: miter; stroke-miterlimit: 4; fill: url(#SVGID_xi4HRCanytwJ5SPe_udDep_16); fill-rule: nonzero; opacity: 1;" transform=" translate(-28, -36)" d="M 26 38 L 29 38 C 29.552 38 30 37.552 30 37 L 30 34 L 26 34 L 26 38 z" stroke-linecap="round" />
</g>
<g transform="matrix(1 0 0 1 0 16)" >
<linearGradient id="SVGID_xi4HRCanytwJ5SPe_udDeq_17" gradientUnits="userSpaceOnUse" gradientTransform="matrix(-1 0 0 1 56 0)" x1="31.676" y1="37.705" x2="32.453" y2="42.112">
<stop offset="0%" style="stop-color:rgb(99,99,99);stop-opacity: 1"/>
<stop offset="100%" style="stop-color:rgb(68,68,68);stop-opacity: 1"/>
</linearGradient>
<path style="stroke: none; stroke-width: 1; stroke-dasharray: none; stroke-linecap: butt; stroke-dashoffset: 0; stroke-linejoin: miter; stroke-miterlimit: 4; fill: url(#SVGID_xi4HRCanytwJ5SPe_udDeq_17); fill-rule: nonzero; opacity: 1;" transform=" translate(-24, -40)" d="M 23 42 L 25 42 C 25.552 42 26 41.552 26 41 L 26 38 L 22 38 L 22 41 C 22 41.552 22.448 42 23 42 z" stroke-linecap="round" />
</g>
<g transform="matrix(1 0 0 1 -10 -16)" >
<linearGradient id="SVGID_xi4HRCanytwJ5SPe_udDer_18" gradientUnits="userSpaceOnUse" gradientTransform="matrix(1 0 0 1 0 0)" x1="13.57" y1="6.015" x2="14.202" y2="9.6">
<stop offset="0%" style="stop-color:rgb(99,99,99);stop-opacity: 1"/>
<stop offset="100%" style="stop-color:rgb(68,68,68);stop-opacity: 1"/>
</linearGradient>
<path style="stroke: none; stroke-width: 1; stroke-dasharray: none; stroke-linecap: butt; stroke-dashoffset: 0; stroke-linejoin: miter; stroke-miterlimit: 4; fill: url(#SVGID_xi4HRCanytwJ5SPe_udDer_18); fill-rule: nonzero; opacity: 1;" transform=" translate(-14, -8)" d="M 18 10 L 10 10 L 10 7 C 10 6.448 10.448 6 11 6 L 17 6 C 17.552 6 18 6.448 18 7 L 18 10 z" stroke-linecap="round" />
</g>
<g transform="matrix(1 0 0 1 16 -12)" >
<linearGradient id="SVGID_xi4HRCanytwJ5SPe_udDes_19" gradientUnits="userSpaceOnUse" gradientTransform="matrix(-1 0 0 1 58 0)" x1="17.625" y1="9.874" x2="18.402" y2="14.282">
<stop offset="0%" style="stop-color:rgb(99,99,99);stop-opacity: 1"/>
<stop offset="100%" style="stop-color:rgb(68,68,68);stop-opacity: 1"/>
</linearGradient>
<path style="stroke: none; stroke-width: 1; stroke-dasharray: none; stroke-linecap: butt; stroke-dashoffset: 0; stroke-linejoin: miter; stroke-miterlimit: 4; fill: url(#SVGID_xi4HRCanytwJ5SPe_udDes_19); fill-rule: nonzero; opacity: 1;" transform=" translate(-40, -12)" d="M 38 14 L 42 14 L 42 11 C 42 10.448 41.552 10 41 10 L 38 10 L 38 14 z" stroke-linecap="round" />
</g>
<g transform="matrix(1 0 0 1 10 -16)" >
<linearGradient id="SVGID_xi4HRCanytwJ5SPe_udDet_20" gradientUnits="userSpaceOnUse" gradientTransform="matrix(-1 0 0 1 58 0)" x1="23.57" y1="6.015" x2="24.202" y2="9.6">
<stop offset="0%" style="stop-color:rgb(99,99,99);stop-opacity: 1"/>
<stop offset="100%" style="stop-color:rgb(68,68,68);stop-opacity: 1"/>
</linearGradient>
<path style="stroke: none; stroke-width: 1; stroke-dasharray: none; stroke-linecap: butt; stroke-dashoffset: 0; stroke-linejoin: miter; stroke-miterlimit: 4; fill: url(#SVGID_xi4HRCanytwJ5SPe_udDet_20); fill-rule: nonzero; opacity: 1;" transform=" translate(-34, -8)" d="M 30 10 L 38 10 L 38 7 C 38 6.448 37.552 6 37 6 L 31 6 C 30.448 6 30 6.448 30 7 L 30 10 z" stroke-linecap="round" />
</g>
</g>
</g>
</svg>